HIERARCHY
ROOT pelvis
{
	OFFSET 0.000000 0.000000 0.000000
	CHANNELS 6 Xposition Yposition Zposition Xrotation Yrotation Zrotation
	JOINT l_hip
	{
		OFFSET 0.195211 -0.245059 -0.022011
		CHANNELS 3 Xrotation Yrotation Zrotation
		JOINT l_knee
		{
			OFFSET 0.083896 -0.996307 -0.018298
			CHANNELS 3 Xrotation Yrotation Zrotation
			JOINT l_ankle
			{
				OFFSET -0.031606 -1.048662 -0.119000
				CHANNELS 3 Xrotation Yrotation Zrotation
				JOINT l_foot
				{
					OFFSET 0.063841 -0.149483 0.312863
					CHANNELS 3 Xrotation Yrotation Zrotation
					End Site
					{
						OFFSET 0.000000 0.000000 0.000000
					}
				}
			}
		}
	}
	JOINT r_hip
	{
		OFFSET -0.188785 -0.243354 -0.013119
		CHANNELS 3 Xrotation Yrotation Zrotation
		JOINT r_knee
		{
			OFFSET -0.098896 -1.013926 -0.025127
			CHANNELS 3 Xrotation Yrotation Zrotation
			JOINT r_ankle
			{
				OFFSET 0.038376 -1.049454 -0.114596
				CHANNELS 3 Xrotation Yrotation Zrotation
				JOINT r_foot
				{
					OFFSET -0.060300 -0.126955 0.322518
					CHANNELS 3 Xrotation Yrotation Zrotation
					End Site
					{
						OFFSET 0.000000 0.000000 0.000000
					}
				}
			}
		}
	}
	JOINT spine1
	{
		OFFSET -0.006861 0.282462 -0.060688
		CHANNELS 3 Xrotation Yrotation Zrotation
		JOINT spine2
		{
			OFFSET 0.009796 0.349212 -0.004686
			CHANNELS 3 Xrotation Yrotation Zrotation
			JOINT spine3
			{
				OFFSET 0.005545 0.134239 0.076232
				CHANNELS 3 Xrotation Yrotation Zrotation
				JOINT neck
				{
					OFFSET -0.005369 0.569656 -0.136135
					CHANNELS 3 Xrotation Yrotation Zrotation
					JOINT head
					{
						OFFSET 0.009621 0.170484 0.137338
						CHANNELS 3 Xrotation Yrotation Zrotation
						End Site
						{
							OFFSET 0.000000 0.000000 0.000000
						}
					}
				}
				JOINT l_collar
				{
					OFFSET 0.205981 0.322192 -0.100872
					CHANNELS 3 Xrotation Yrotation Zrotation
					JOINT l_shoulder
					{
						OFFSET 0.233388 0.086823 -0.019950
						CHANNELS 3 Xrotation Yrotation Zrotation
						JOINT l_elbow
						{
							OFFSET 0.687295 -0.032736 -0.075278
							CHANNELS 3 Xrotation Yrotation Zrotation
							JOINT l_wrist
							{
								OFFSET 0.651109 0.024639 0.000120
								CHANNELS 3 Xrotation Yrotation Zrotation
								JOINT l_hand
								{
									OFFSET 0.217934 -0.026487 -0.036124
									CHANNELS 3 Xrotation Yrotation Zrotation
									End Site
									{
										OFFSET 0.000000 0.000000 0.000000
									}
								}
							}
						}
					}
				}
				JOINT r_collar
				{
					OFFSET -0.210726 0.316244 -0.114374
					CHANNELS 3 Xrotation Yrotation Zrotation
					JOINT r_shoulder
					{
						OFFSET -0.244017 0.089684 -0.026814
						CHANNELS 3 Xrotation Yrotation Zrotation
						JOINT r_elbow
						{
							OFFSET -0.672913 -0.035979 -0.055153
							CHANNELS 3 Xrotation Yrotation Zrotation
							JOINT r_wrist
							{
								OFFSET -0.670689 0.023586 -0.009661
								CHANNELS 3 Xrotation Yrotation Zrotation
								JOINT r_hand
								{
									OFFSET -0.219937 -0.019827 -0.028502
									CHANNELS 3 Xrotation Yrotation Zrotation
									End Site
									{
										OFFSET 0.000000 0.000000 0.000000
									}
								}
							}
						}
					}
				}
			}
		}
	}
}
MOTION
Frames: 14
Frame Time: 0.016667
0.000000 0.000000 0.000000 0.000000 0.000000 0.000000 -7.479984 -0.423848 3.033208 23.738309 -9.469506 -3.163647 0.000000 0.000000 0.000000 0.000000 0.000000 0.000000 -6.691914 -0.336075 -3.015441 22.380942 6.221866 1.795203 0.000000 0.000000 0.000000 0.000000 0.000000 0.000000 11.697387 2.372683 0.018481 12.497185 -5.210450 4.967586 -4.205572 0.125345 2.019419 -2.462153 -12.844748 2.693165 -0.946754 -2.484669 14.527251 1.026382 -7.530109 -31.435649 -4.722443 -9.711270 -50.718892 -24.241565 -29.831292 7.750761 0.000000 0.000000 0.000000 0.000000 0.000000 0.000000 -0.562037 10.608127 27.990434 0.919362 1.982994 42.278299 -5.668004 42.448334 -7.184877 0.000000 0.000000 0.000000 0.000000 0.000000 0.000000 
0.000000 0.000000 0.000000 0.000000 0.000000 0.000000 -6.818653 -0.044854 2.836567 22.520602 -9.087743 -2.977770 0.000000 0.000000 0.000000 0.000000 0.000000 0.000000 -6.428333 -0.199639 -2.967640 21.381234 6.708179 1.569102 0.000000 0.000000 0.000000 0.000000 0.000000 0.000000 11.094648 2.432882 0.326528 12.194492 -4.966238 5.248611 -4.086581 0.155170 2.026920 -2.176713 -12.102798 2.539860 0.425730 -2.791385 13.440420 1.144618 -6.518317 -30.322789 -5.659077 -9.337295 -49.344529 -27.601323 -30.886969 6.715528 0.000000 0.000000 0.000000 0.000000 0.000000 0.000000 -0.307469 10.382601 28.380886 1.629422 2.632300 43.282696 -5.925635 38.802833 -6.644697 0.000000 0.000000 0.000000 0.000000 0.000000 0.000000 
0.000000 0.000000 0.000000 0.000000 0.000000 0.000000 -6.178726 0.194006 2.618242 21.453807 -8.705522 -2.811320 0.000000 0.000000 0.000000 0.000000 0.000000 0.000000 -6.167157 -0.045858 -2.914696 20.457021 7.235841 1.342462 0.000000 0.000000 0.000000 0.000000 0.000000 0.000000 10.603344 2.517572 0.669068 11.615390 -4.745927 5.475793 -3.855693 0.168582 2.030309 -1.869402 -11.367645 2.456142 2.041916 -3.127893 12.412042 1.177157 -5.062595 -29.069424 -6.894944 -8.914934 -47.683790 -31.298818 -31.863603 5.566071 0.000000 0.000000 0.000000 0.000000 0.000000 0.000000 -0.130358 9.842440 28.550776 2.251645 3.229352 44.125322 -6.640940 35.249767 -5.976797 0.000000 0.000000 0.000000 0.000000 0.000000 0.000000 
0.000000 0.000000 0.000000 0.000000 0.000000 0.000000 -5.685395 0.498652 2.392662 20.158420 -8.384714 -2.635402 0.000000 0.000000 0.000000 0.000000 0.000000 0.000000 -6.103911 0.115770 -2.864665 19.553203 7.719906 1.137353 0.000000 0.000000 0.000000 0.000000 0.000000 0.000000 10.112590 2.521670 1.028956 10.806416 -4.549622 5.713265 -3.629084 0.168291 2.032412 -1.643809 -10.822287 2.367849 3.766612 -3.506499 11.460933 1.082444 -3.306263 -27.800685 -8.226943 -8.718433 -45.721999 -35.600260 -33.456818 3.960003 0.000000 0.000000 0.000000 0.000000 0.000000 0.000000 -0.020541 8.925075 28.670605 2.980235 3.686471 44.603670 -7.621954 32.040629 -5.164439 0.000000 0.000000 0.000000 0.000000 0.000000 0.000000 
0.000000 0.000000 0.000000 0.000000 0.000000 0.000000 -5.263776 0.746053 2.137928 19.099309 -8.116759 -2.450435 0.000000 0.000000 0.000000 0.000000 0.000000 0.000000 -6.029924 0.278785 -2.829438 18.685254 8.315708 0.930340 0.000000 0.000000 0.000000 0.000000 0.000000 0.000000 9.563698 2.533835 1.375899 10.071856 -4.422589 5.956058 -3.466888 0.168769 2.011713 -1.410152 -10.262018 2.211536 5.741458 -3.770497 10.560888 0.904533 -1.625858 -26.617612 -9.756621 -8.635136 -43.279870 -40.246047 -35.102844 1.890149 0.000000 0.000000 0.000000 0.000000 0.000000 0.000000 0.111183 7.998805 28.826556 3.601264 3.958512 44.713952 -8.884882 29.016146 -4.346409 0.000000 0.000000 0.000000 0.000000 0.000000 0.000000 
0.000000 0.000000 0.000000 0.000000 0.000000 0.000000 -4.766952 1.017083 1.946078 18.174629 -7.890881 -2.274373 0.000000 0.000000 0.000000 0.000000 0.000000 0.000000 -5.881300 0.443855 -2.780144 17.980719 8.901013 0.774387 0.000000 0.000000 0.000000 0.000000 0.000000 0.000000 9.060613 2.495953 1.716189 9.339481 -4.346732 6.257822 -3.245696 0.172590 2.018031 -1.140421 -9.753817 1.951968 7.689375 -3.998836 9.764684 0.759191 -0.017981 -25.253525 -11.162666 -8.713401 -40.788118 -44.508551 -37.248976 -0.739749 0.000000 0.000000 0.000000 0.000000 0.000000 0.000000 0.226175 6.947852 28.822798 4.164703 4.043779 44.607621 -10.192400 26.273843 -3.555437 0.000000 0.000000 0.000000 0.000000 0.000000 0.000000 
0.000000 0.000000 0.000000 0.000000 0.000000 0.000000 -4.340195 1.315502 1.776426 17.152392 -7.527489 -2.148317 0.000000 0.000000 0.000000 0.000000 0.000000 0.000000 -5.863431 0.598353 -2.730057 17.223672 9.532275 0.609899 0.000000 0.000000 0.000000 0.000000 0.000000 0.000000 8.696769 2.496309 2.027790 8.571662 -4.208927 6.511441 -3.061478 0.247156 2.024958 -1.005903 -9.230137 1.775713 9.555752 -4.328707 9.015832 0.475511 1.598917 -23.780976 -12.544392 -9.065100 -38.455175 -48.653676 -40.097629 -3.537044 0.000000 0.000000 0.000000 0.000000 0.000000 0.000000 0.333772 5.900488 28.726340 4.564384 4.183555 44.441542 -11.563874 23.696033 -3.247004 0.000000 0.000000 0.000000 0.000000 0.000000 0.000000 
0.000000 0.000000 0.000000 0.000000 0.000000 0.000000 -3.973672 1.597855 1.672722 16.325760 -7.254731 -2.057031 0.000000 0.000000 0.000000 0.000000 0.000000 0.000000 -5.777290 0.665554 -2.709056 16.553348 10.023496 0.514448 0.000000 0.000000 0.000000 0.000000 0.000000 0.000000 8.227312 2.494630 2.274364 8.041111 -4.106699 6.874936 -2.972842 0.279161 2.097661 -0.788699 -8.693486 1.550806 11.216350 -4.615527 8.332069 0.213014 3.077898 -22.299953 -13.916313 -9.747739 -36.231340 -52.312602 -43.431767 -6.720201 0.000000 0.000000 0.000000 0.000000 0.000000 0.000000 0.412021 4.793964 28.600883 4.757181 4.226390 44.032831 -13.068895 21.081518 -2.963573 0.000000 0.000000 0.000000 0.000000 0.000000 0.000000 
0.000000 0.000000 0.000000 0.000000 0.000000 0.000000 -3.779951 1.828068 1.603045 15.741346 -6.855777 -1.970329 0.000000 0.000000 0.000000 0.000000 0.000000 0.000000 -5.763909 0.757566 -2.647328 15.888138 10.560190 0.422462 0.000000 0.000000 0.000000 0.000000 0.000000 0.000000 7.822030 2.514986 2.502258 7.404851 -4.032286 7.293101 -2.798567 0.347891 2.235178 -0.561894 -8.164453 1.237675 12.783546 -4.927344 7.794159 -0.091123 4.345071 -20.528364 -15.049787 -10.482567 -34.183144 -55.934974 -46.958698 -10.650856 0.000000 0.000000 0.000000 0.000000 0.000000 0.000000 0.491742 3.692566 28.262631 4.808751 4.104577 43.583723 -14.313616 18.793187 -3.066808 0.000000 0.000000 0.000000 0.000000 0.000000 0.000000 
0.000000 0.000000 0.000000 0.000000 0.000000 0.000000 -3.635107 2.026873 1.591563 15.288718 -6.631599 -1.874696 0.000000 0.000000 0.000000 0.000000 0.000000 0.000000 -5.680491 0.773032 -2.570800 15.246858 11.038571 0.409096 0.000000 0.000000 0.000000 0.000000 0.000000 0.000000 7.432390 2.564666 2.681822 6.987055 -3.996659 7.780088 -2.714913 0.364152 2.446130 -0.394193 -7.806722 0.887971 14.189467 -5.255387 7.424449 -0.454409 5.328873 -18.980059 -16.312292 -11.591487 -32.000557 -59.967032 -50.331737 -15.129918 0.000000 0.000000 0.000000 0.000000 0.000000 0.000000 0.528377 2.716861 28.051872 4.861351 3.766068 42.632541 -15.828850 16.649175 -2.804817 0.000000 0.000000 0.000000 0.000000 0.000000 0.000000 
0.000000 0.000000 0.000000 0.000000 0.000000 0.000000 -3.367695 2.252658 1.566769 14.821612 -6.430469 -1.772645 0.000000 0.000000 0.000000 0.000000 0.000000 0.000000 -5.509178 0.769581 -2.495024 14.592758 11.587043 0.377147 0.000000 0.000000 0.000000 0.000000 0.000000 0.000000 6.991092 2.664282 2.851146 6.825849 -3.926351 8.270880 -2.729982 0.402026 2.683373 -0.321867 -7.450606 0.561228 15.418705 -5.672469 7.062586 -0.923833 5.984252 -17.608583 -17.669880 -12.939550 -29.839093 -64.460027 -53.778420 -20.074981 0.000000 0.000000 0.000000 0.000000 0.000000 0.000000 0.566420 2.007074 27.924814 4.851697 3.300273 41.529520 -17.310637 14.757597 -2.797820 0.000000 0.000000 0.000000 0.000000 0.000000 0.000000 
0.000000 0.000000 0.000000 0.000000 0.000000 0.000000 -3.177524 2.435523 1.522681 14.386431 -6.234431 -1.647117 0.000000 0.000000 0.000000 0.000000 0.000000 0.000000 -5.417466 0.745452 -2.451462 14.035526 12.035510 0.377203 0.000000 0.000000 0.000000 0.000000 0.000000 0.000000 6.596413 2.779465 2.996715 6.616216 -3.883530 8.761888 -2.688685 0.452898 2.949273 -0.216573 -7.018599 0.154449 16.408156 -6.102693 6.858146 -1.397292 6.254419 -16.078067 -18.769764 -14.324784 -27.734412 -69.641299 -56.911385 -26.165647 0.000000 0.000000 0.000000 0.000000 0.000000 0.000000 0.559293 1.534486 27.614121 4.933253 2.704150 40.573789 -18.557552 13.201440 -2.913813 0.000000 0.000000 0.000000 0.000000 0.000000 0.000000 
0.000000 0.000000 0.000000 0.000000 0.000000 0.000000 -2.955636 2.643548 1.493669 14.062113 -6.091534 -1.591743 0.000000 0.000000 0.000000 0.000000 0.000000 0.000000 -5.216727 0.682686 -2.442535 13.461225 12.469014 0.388596 0.000000 0.000000 0.000000 0.000000 0.000000 0.000000 6.159063 2.932581 3.091309 6.574699 -3.838571 9.264490 -2.757680 0.511628 3.217914 -0.030733 -6.498895 -0.208845 17.366552 -6.510202 6.706310 -1.895426 6.219767 -14.641002 -19.816688 -15.957960 -25.393049 -74.547222 -59.464543 -32.428966 0.000000 0.000000 0.000000 0.000000 0.000000 0.000000 0.568646 1.236408 27.360565 5.026476 2.007628 39.476462 -19.540172 11.852983 -3.066537 0.000000 0.000000 0.000000 0.000000 0.000000 0.000000 
0.000000 0.000000 0.000000 0.000000 0.000000 0.000000 -2.846325 2.819895 1.461687 13.889122 -6.040701 -1.567271 0.000000 0.000000 0.000000 0.000000 0.000000 0.000000 -5.109814 0.603513 -2.443996 13.121847 12.910897 0.359871 0.000000 0.000000 0.000000 0.000000 0.000000 0.000000 5.810523 3.085928 3.120228 6.554313 -3.864260 9.741050 -2.831647 0.553076 3.500635 -0.013696 -6.051576 -0.656738 18.290390 -6.894151 6.788098 -2.392965 5.803682 -13.230395 -20.744306 -17.720423 -22.844496 -79.362682 -61.623895 -39.089445 0.000000 0.000000 0.000000 0.000000 0.000000 0.000000 0.512856 1.160508 27.066512 5.107405 1.186241 38.403613 -20.593638 10.827057 -3.054088 0.000000 0.000000 0.000000 0.000000 0.000000 0.000000 
